<?xml version="1.0" standalone="no"?>
<!DOCTYPE svg PUBLIC "-//W3C//DTD SVG 20010904//EN"
 "http://www.w3.org/TR/2001/REC-SVG-20010904/DTD/svg10.dtd">
<svg version="1.0" xmlns="http://www.w3.org/2000/svg"
 width="300.000000pt" height="300.000000pt" viewBox="0 0 300.000000 300.000000"
 preserveAspectRatio="xMidYMid meet">
<metadata>
Created by potrace 1.11, written by Peter Selinger 2001-2013
</metadata>
<g transform="translate(0.000000,300.000000) scale(0.100000,-0.100000)"
fill="#000000" stroke="none">
<path d="M152 1028 l3 -893 120 0 120 0 3 210 2 211 90 89 89 88 24 -54 c13
-30 68 -160 122 -289 54 -129 102 -239 106 -244 8 -8 223 -16 245 -9 9 3 8 12
-1 31 -12 24 -85 196 -180 427 -19 44 -58 137 -88 208 l-55 127 56 63 c32 35
84 94 118 131 l61 68 17 -43 c10 -24 24 -57 31 -74 8 -16 65 -149 128 -295 63
-146 147 -339 187 -430 40 -91 74 -175 77 -188 3 -12 13 -23 22 -23 9 -1 33
-2 53 -3 l37 -2 77 186 c43 102 87 208 99 235 12 28 53 125 91 217 38 92 72
168 76 168 4 0 10 -10 14 -22 3 -13 14 -41 24 -63 14 -31 203 -474 293 -688
12 -27 16 -29 76 -31 l34 -1 67 155 c38 85 148 340 245 565 98 226 186 427
195 448 l18 38 -131 -3 -131 -3 -153 -354 c-84 -195 -155 -356 -158 -359 -2
-3 -8 4 -11 14 -8 23 -131 320 -144 349 -5 11 -27 63 -49 115 -21 52 -52 127
-68 165 l-30 70 -90 3 -90 3 -148 -353 c-81 -194 -150 -356 -154 -360 -4 -4
-76 153 -161 350 l-155 357 -167 3 -168 2 -215 -215 c-118 -118 -217 -215
-220 -215 -3 0 -5 227 -5 505 l0 505 -125 0 -125 0 2 -892z"/>
</g>
</svg>
